<?xml version="1.0" encoding="UTF-8"?>
<!DOCTYPE svg PUBLIC "-//W3C//DTD SVG 1.1//EN" "http://www.w3.org/Graphics/SVG/1.1/DTD/svg11.dtd">
<svg xmlns="http://www.w3.org/2000/svg" version="1.1" width="238px" height="417px" style="shape-rendering:geometricPrecision; text-rendering:geometricPrecision; image-rendering:optimizeQuality; fill-rule:evenodd; clip-rule:evenodd" xmlns:xlink="http://www.w3.org/1999/xlink">
<g><path style="opacity:1" fill="#069b66" d="M 75.5,328.5 C 78.323,326.095 78.1563,323.761 75,321.5C 74.3333,317.167 74.3333,312.833 75,308.5C 76.5122,309.257 77.8455,310.257 79,311.5C 79.658,309.892 79.158,308.725 77.5,308C 79.7715,304.889 80.9381,301.389 81,297.5C 81.3333,298.167 81.6667,298.833 82,299.5C 82.2896,297.956 82.9563,296.623 84,295.5C 83.3493,291.757 84.1827,288.257 86.5,285C 85.152,283.317 84.152,281.483 83.5,279.5C 85.0024,276.587 86.0024,273.42 86.5,270C 83.9634,267.791 82.2967,268.291 81.5,271.5C 80.8386,272.718 80.1719,274.051 79.5,275.5C 78.5067,270.88 78.1734,266.214 78.5,261.5C 82.1163,260.476 85.6163,259.143 89,257.5C 89.6667,258.167 90.3333,258.833 91,259.5C 92.8402,258.167 93.3402,258.334 92.5,260C 93.4162,260.374 94.2496,260.874 95,261.5C 96.3333,258.833 97.6667,256.167 99,253.5C 99.4512,255.929 100.285,256.096 101.5,254C 102.061,252.434 101.394,251.101 99.5,250C 100.833,249.333 101.833,248.333 102.5,247C 101.565,244.619 101.232,242.119 101.5,239.5C 104.24,217.393 107.74,195.393 112,173.5C 112.577,166.5 113.077,159.5 113.5,152.5C 115.607,143.308 117.607,133.975 119.5,124.5C 118.009,123.756 116.509,123.09 115,122.5C 113.33,126.536 111.663,130.536 110,134.5C 109.668,126.757 108.502,126.757 106.5,134.5C 105.609,135.59 104.609,135.59 103.5,134.5C 102.808,135.025 102.308,135.692 102,136.5C 98.3005,149.932 93.8005,162.932 88.5,175.5C 86.8983,174.45 86.065,175.117 86,177.5C 85,182.167 84,186.833 83,191.5C 82.2401,195.225 82.4068,198.892 83.5,202.5C 82.8333,203.167 82.1667,203.833 81.5,204.5C 82.6113,205.611 83.278,206.945 83.5,208.5C 81.9639,217.156 80.4639,225.823 79,234.5C 78.1667,237 77,237.167 75.5,235C 76.1667,234 76.8333,233 77.5,232C 76.8919,227.984 76.5586,223.984 76.5,220C 79.0171,213.858 79.0171,207.691 76.5,201.5C 77.2236,194.154 78.0569,186.821 79,179.5C 86.9274,149.789 93.5941,119.789 99,89.5C 101.827,79.5127 105.494,69.8461 110,60.5C 112.911,56.7229 116.744,55.5563 121.5,57C 132.833,61.6667 144.167,66.3333 155.5,71C 157.617,72.7309 159.117,74.8976 160,77.5C 163.961,91.3444 167.294,105.344 170,119.5C 176.404,163.068 182.071,206.734 187,250.5C 190.012,253.394 190.179,256.56 187.5,260C 190.665,291.805 193.165,323.639 195,355.5C 195.054,358.191 193.887,360.024 191.5,361C 181.833,361.667 172.167,361.667 162.5,361C 159.851,360.548 157.351,359.714 155,358.5C 150.779,327.339 146.612,296.172 142.5,265C 131.711,264.955 121.044,266.122 110.5,268.5C 106.574,294.391 103.408,320.391 101,346.5C 100.827,350.708 99.66,354.541 97.5,358C 89.5331,359.232 82.3665,357.399 76,352.5C 74.1763,347.903 74.0096,343.237 75.5,338.5C 75.5142,336.407 74.8476,334.574 73.5,333C 74.2666,331.53 74.9332,330.03 75.5,328.5 Z M 157.5,187.5 C 160.298,206.951 162.298,226.618 163.5,246.5C 162.883,246.389 162.383,246.056 162,245.5C 160.823,237.422 159.323,229.422 157.5,221.5C 156.299,225.492 156.299,229.492 157.5,233.5C 157.518,235.373 157.018,235.706 156,234.5C 155.125,227.407 153.791,220.407 152,213.5C 151.275,211.842 150.108,211.342 148.5,212C 150.798,218.939 152.298,226.106 153,233.5C 153.358,237.257 154.858,240.424 157.5,243C 156.584,243.374 155.75,243.874 155,244.5C 153.445,239.407 152.612,239.407 152.5,244.5C 152.011,247.324 150.344,248.657 147.5,248.5C 146.55,240.582 146.55,232.749 147.5,225C 146.104,221.584 144.937,218.084 144,214.5C 141.852,216.879 142.018,219.045 144.5,221C 144,221.5 143.5,222 143,222.5C 142.833,224.833 142.667,227.167 142.5,229.5C 143.477,236.187 143.477,242.853 142.5,249.5C 132.576,251.324 122.576,252.657 112.5,253.5C 116.064,218.452 121.897,183.785 130,149.5C 131.406,157.941 133.239,166.274 135.5,174.5C 136.712,175.23 137.712,176.23 138.5,177.5C 139.456,176.135 140.122,174.635 140.5,173C 139.371,163.202 139.204,153.368 140,143.5C 140.219,144.938 140.719,146.271 141.5,147.5C 142.396,144.856 143.229,142.19 144,139.5C 146.888,157.829 149.888,176.162 153,194.5C 154.48,198.615 156.147,202.615 158,206.5C 157.987,200.182 157.821,193.849 157.5,187.5 Z M 150.5,264.5 C 151.117,264.611 151.617,264.944 152,265.5C 152.614,267.879 152.947,270.212 153,272.5C 149.675,270.521 148.842,267.855 150.5,264.5 Z M 91.5,270.5 C 92.6431,273.068 92.4764,275.735 91,278.5C 90.5702,275.808 90.7369,273.141 91.5,270.5 Z"/></g>
<g><path style="opacity:0.263" fill="#5b7a6f" d="M 111.5,142.5 C 111.369,141.761 111.536,141.094 112,140.5C 112.692,141.437 112.525,142.103 111.5,142.5 Z"/></g>
<g><path style="opacity:0.384" fill="#467d6c" d="M 112.5,147.5 C 113.833,148.167 113.833,148.167 112.5,147.5 Z"/></g>
<g><path style="opacity:0.667" fill="#309373" d="M 113.5,152.5 C 112.833,152.833 112.167,153.167 111.5,153.5C 111.711,151.576 112.377,151.243 113.5,152.5 Z"/></g>
<g><path style="opacity:1" fill="#319172" d="M 111.5,142.5 C 111.06,146.371 111.06,150.038 111.5,153.5C 109.919,155.142 109.253,157.142 109.5,159.5C 108.833,159.5 108.5,159.833 108.5,160.5C 108.5,161.5 108.5,162.5 108.5,163.5C 107.778,163.918 107.278,164.584 107,165.5C 106.79,157.415 108.29,149.748 111.5,142.5 Z"/></g>
<g><path style="opacity:0.541" fill="#558175" d="M 105.5,166.5 C 106.573,167.251 106.74,168.251 106,169.5C 105.517,168.552 105.351,167.552 105.5,166.5 Z"/></g>
<g><path style="opacity:1" fill="#28996d" d="M 108.5,163.5 C 108.5,162.5 108.5,161.5 108.5,160.5C 109.167,160.5 109.5,160.167 109.5,159.5C 110.222,159.082 110.722,158.416 111,157.5C 110.919,164.918 109.919,172.251 108,179.5C 107.471,174.146 107.638,168.813 108.5,163.5 Z"/></g>
<g><path style="opacity:0.753" fill="#35836b" d="M 104.5,172.5 C 105.573,173.251 105.74,174.251 105,175.5C 104.517,174.552 104.351,173.552 104.5,172.5 Z"/></g>
<g><path style="opacity:0.145" fill="#598275" d="M 144.5,180.5 C 145.077,179.227 145.743,179.227 146.5,180.5C 146.03,181.463 145.363,181.463 144.5,180.5 Z"/></g>
<g><path style="opacity:0.384" fill="#62897b" d="M 84.5,190.5 C 86.9732,190.947 87.1399,191.947 85,193.5C 84.5172,192.552 84.3505,191.552 84.5,190.5 Z"/></g>
<g><path style="opacity:0.569" fill="#538477" d="M 148.5,201.5 C 151.001,201.511 151.168,202.178 149,203.5C 148.536,202.906 148.369,202.239 148.5,201.5 Z"/></g>
<g><path style="opacity:0.408" fill="#647d74" d="M 91.5,234.5 C 92.5735,235.251 92.7401,236.251 92,237.5C 91.5172,236.552 91.3505,235.552 91.5,234.5 Z"/></g>
<g><path style="opacity:0.945" fill="#239770" d="M 163.5,246.5 C 163.719,247.675 163.386,248.675 162.5,249.5C 161.226,247.682 159.726,246.015 158,244.5C 156.172,245.752 154.339,245.752 152.5,244.5C 152.612,239.407 153.445,239.407 155,244.5C 155.75,243.874 156.584,243.374 157.5,243C 154.858,240.424 153.358,237.257 153,233.5C 152.298,226.106 150.798,218.939 148.5,212C 150.108,211.342 151.275,211.842 152,213.5C 153.791,220.407 155.125,227.407 156,234.5C 157.018,235.706 157.518,235.373 157.5,233.5C 156.299,229.492 156.299,225.492 157.5,221.5C 159.323,229.422 160.823,237.422 162,245.5C 162.383,246.056 162.883,246.389 163.5,246.5 Z"/></g>
<g><path style="opacity:1" fill="#3d9476" d="M 77.5,237.5 C 78.0431,237.56 78.3764,237.893 78.5,238.5C 77.8108,240.444 77.3108,242.444 77,244.5C 74.9121,241.956 75.0787,239.623 77.5,237.5 Z"/></g>
<g><path style="opacity:0.286" fill="#6f8880" d="M 91.5,242.5 C 90.8333,241.167 90.8333,241.167 91.5,242.5 Z"/></g>
<g><path style="opacity:0.106" fill="#607f75" d="M 76.5,245.5 C 77.525,245.897 77.6917,246.563 77,247.5C 76.5357,246.906 76.369,246.239 76.5,245.5 Z"/></g>
<g><path style="opacity:0.059" fill="#657765" d="M 74.5,248.5 C 75.8333,249.167 75.8333,249.167 74.5,248.5 Z"/></g>
<g><path style="opacity:0.082" fill="#606d60" d="M 81.5,251.5 C 82.8333,252.167 82.8333,252.167 81.5,251.5 Z"/></g>
<g><path style="opacity:1" fill="#19976a" d="M 101.5,239.5 C 101.232,242.119 101.565,244.619 102.5,247C 101.833,248.333 100.833,249.333 99.5,250C 101.394,251.101 102.061,252.434 101.5,254C 100.285,256.096 99.4512,255.929 99,253.5C 97.6667,256.167 96.3333,258.833 95,261.5C 94.2496,260.874 93.4162,260.374 92.5,260C 93.3402,258.334 92.8402,258.167 91,259.5C 90.3333,258.833 89.6667,258.167 89,257.5C 85.6163,259.143 82.1163,260.476 78.5,261.5C 78.1734,266.214 78.5067,270.88 79.5,275.5C 80.1719,274.051 80.8386,272.718 81.5,271.5C 81.5,273.833 81.5,276.167 81.5,278.5C 82.9665,275.742 83.6332,276.075 83.5,279.5C 84.152,281.483 85.152,283.317 86.5,285C 84.1827,288.257 83.3493,291.757 84,295.5C 82.9563,296.623 82.2896,297.956 82,299.5C 81.6667,298.833 81.3333,298.167 81,297.5C 80.9381,301.389 79.7715,304.889 77.5,308C 79.158,308.725 79.658,309.892 79,311.5C 77.8455,310.257 76.5122,309.257 75,308.5C 74.3333,312.833 74.3333,317.167 75,321.5C 78.1563,323.761 78.323,326.095 75.5,328.5C 74.0674,326.519 73.0674,323.019 72.5,318C 73.9735,307.207 74.4735,296.373 74,285.5C 72.9887,286.337 71.8221,286.67 70.5,286.5C 70.1875,289.572 70.8542,292.405 72.5,295C 68.4707,310.566 66.304,326.4 66,342.5C 62.0605,350.663 60.5605,349.996 61.5,340.5C 64.2183,318.857 66.7183,297.191 69,275.5C 70.3848,276.551 71.3848,277.884 72,279.5C 72.8525,277.875 73.8525,277.542 75,278.5C 74.9712,275.359 75.8045,272.192 77.5,269C 75.1203,263.03 76.9537,258.864 83,256.5C 84.9376,257.86 86.6043,257.527 88,255.5C 88.8469,251.029 90.0136,246.696 91.5,242.5C 92.3112,246.66 92.3112,250.994 91.5,255.5C 92.8333,255.5 94.1667,255.5 95.5,255.5C 95.9748,248.75 96.9748,242.083 98.5,235.5C 99.8592,236.624 100.859,237.958 101.5,239.5 Z M 81.5,278.5 C 82.9738,280.927 82.8071,283.26 81,285.5C 80.2042,282.961 80.3709,280.628 81.5,278.5 Z"/></g>
<g><path style="opacity:0.361" fill="#477363" d="M 72.5,288.5 C 73.525,288.897 73.6917,289.563 73,290.5C 72.5357,289.906 72.369,289.239 72.5,288.5 Z"/></g>
</svg>
