<?xml version="1.0" encoding="UTF-8"?>
<svg xmlns="http://www.w3.org/2000/svg" xmlns:xlink="http://www.w3.org/1999/xlink" width="20px" height="20px" viewBox="0 0 20 20" version="1.1">
<g id="surface1">
<path style="fill:none;stroke-width:1;stroke-linecap:butt;stroke-linejoin:miter;stroke:rgb(100%,100%,100%);stroke-opacity:1;stroke-miterlimit:4;" d="M 0 0 L 20 0 L 20 20 L 0 20 Z M 0 0 "/>
<path style="fill-rule:nonzero;fill:rgb(100%,100%,100%);fill-opacity:1;stroke-width:1;stroke-linecap:butt;stroke-linejoin:miter;stroke:rgb(100%,100%,100%);stroke-opacity:1;stroke-miterlimit:4;" d="M 2.5 18 L 5.5 18 L 5.5 6.898438 L 2.5 6.898438 Z M 4 2 C 3 2 2.199219 2.800781 2.199219 3.800781 C 2.199219 4.800781 3 5.601562 4 5.601562 C 5 5.601562 5.800781 4.800781 5.800781 3.800781 C 5.800781 2.800781 5 2 4 2 Z M 10.601562 8.601562 L 10.601562 6.898438 L 7.601562 6.898438 L 7.601562 18 L 10.601562 18 L 10.601562 12.300781 C 10.601562 9.101562 14.699219 8.898438 14.699219 12.300781 L 14.699219 18 L 17.699219 18 L 17.699219 11.199219 C 17.699219 5.800781 12 6 10.601562 8.601562 Z M 10.601562 8.601562 "/>
</g>
</svg>
