<?xml version="1.0" encoding="UTF-8"?>
<svg xmlns="http://www.w3.org/2000/svg" xmlns:xlink="http://www.w3.org/1999/xlink" width="20px" height="20px" viewBox="0 0 20 20" version="1.1">
<g id="surface1">
<path style="fill-rule:nonzero;fill:rgb(100%,100%,100%);fill-opacity:1;stroke-width:1;stroke-linecap:butt;stroke-linejoin:miter;stroke:rgb(100%,100%,100%);stroke-opacity:1;stroke-miterlimit:4;" d="M 18.5625 13.157813 C 17.460938 13.157813 16.425 12.689063 15.4875 11.929688 L 15.717188 10.85625 L 15.721875 10.814063 C 15.928125 9.670313 16.570313 7.753125 18.5625 7.753125 C 20.053125 7.753125 21.267188 8.967188 21.267188 10.457813 C 21.2625 11.94375 20.053125 13.157813 18.5625 13.157813 Z M 18.5625 5.020313 C 16.021875 5.020313 14.053125 6.665625 13.251563 9.384375 C 12.032813 7.551563 11.104688 5.348438 10.565625 3.492188 L 7.828125 3.492188 L 7.828125 10.603125 C 7.828125 12.009375 6.689063 13.148438 5.282813 13.153125 C 3.876563 13.148438 2.7375 12.009375 2.7375 10.603125 L 2.7375 3.492188 L 0 3.492188 L 0 10.603125 C 0 13.51875 2.371875 15.904688 5.282813 15.904688 C 8.19375 15.904688 10.565625 13.51875 10.565625 10.603125 L 10.565625 9.4125 C 11.095313 10.51875 11.746875 11.64375 12.539063 12.632813 L 10.865625 20.507813 L 13.664063 20.507813 L 14.873438 14.798438 C 15.9375 15.478125 17.160938 15.904688 18.5625 15.904688 C 21.5625 15.904688 24 13.453125 24 10.457813 C 24 7.457813 21.5625 5.020313 18.5625 5.020313 Z M 18.5625 5.020313 " transform="matrix(0.833333,0,0,0.833333,0,0)"/>
</g>
</svg>
