<?xml version="1.0" encoding="UTF-8"?>
<svg xmlns="http://www.w3.org/2000/svg" xmlns:xlink="http://www.w3.org/1999/xlink" width="20px" height="20px" viewBox="0 0 20 20" version="1.1">
<g id="surface1">
<path style=" stroke:none;fill-rule:nonzero;fill:rgb(100%,100%,100%);fill-opacity:1;" d="M 5.011719 6.671875 C 5.105469 5.917969 6.085938 4.894531 6.863281 5.007812 L 6.859375 5.007812 C 7.617188 5.152344 8.214844 6.453125 8.554688 7.039062 C 8.792969 7.460938 8.636719 7.890625 8.414062 8.074219 C 8.113281 8.316406 7.640625 8.648438 7.742188 8.984375 C 7.917969 9.582031 10 11.667969 11.023438 12.257812 C 11.414062 12.484375 11.695312 11.890625 11.933594 11.589844 C 12.109375 11.355469 12.539062 11.214844 12.960938 11.445312 C 13.59375 11.816406 14.191406 12.242188 14.742188 12.726562 C 15.015625 12.953125 15.082031 13.292969 14.890625 13.652344 C 14.554688 14.285156 13.582031 15.121094 12.878906 14.953125 C 11.648438 14.65625 6.667969 12.726562 5.066406 7.132812 C 4.976562 6.867188 5 6.765625 5.011719 6.671875 Z M 5.011719 6.671875 "/>
<path style=" stroke:none;fill-rule:evenodd;fill:rgb(100%,100%,100%);fill-opacity:1;" d="M 10 19.167969 C 8.980469 19.167969 8.417969 19.058594 7.5 18.75 L 5.746094 19.628906 C 4.636719 20.179688 3.332031 19.375 3.332031 18.136719 L 3.332031 16.25 C 1.539062 14.578125 0.832031 12.648438 0.832031 10 C 0.832031 4.9375 4.9375 0.832031 10 0.832031 C 15.0625 0.832031 19.167969 4.9375 19.167969 10 C 19.167969 15.0625 15.0625 19.167969 10 19.167969 Z M 5 15.523438 L 4.46875 15.03125 C 3.074219 13.730469 2.5 12.277344 2.5 10 C 2.5 5.859375 5.859375 2.5 10 2.5 C 14.140625 2.5 17.5 5.859375 17.5 10 C 17.5 14.140625 14.140625 17.5 10 17.5 C 9.179688 17.5 8.792969 17.425781 8.03125 17.167969 L 7.375 16.949219 L 5 18.136719 Z M 5 15.523438 "/>
</g>
</svg>
